<?xml version="1.0" encoding="UTF-8"?>
<svg width="90px" height="61px" viewBox="0 0 90 61" version="1.1" xmlns="http://www.w3.org/2000/svg" xmlns:xlink="http://www.w3.org/1999/xlink">
    <title>liver benefit</title>
    <g id="Page-1" stroke="none" stroke-width="1" fill="none" fill-rule="evenodd">
        <g id="liver-benefit" fill="#627D32" fill-rule="nonzero">
            <path d="M53.582,4.081914 C53.582,4.081914 52.075,6.993914 51.752,11.283914 C51.489,14.790914 52.438,23.270914 53.09,26.002914 C53.866,29.246914 55.379,30.017914 58.284,30.083914 C61.188,30.147914 67.54,26.472914 69.217,25.572914 C70.756,24.748914 78.796,19.710914 88.075,9.614914 C88.64,8.999914 92.022,4.418914 88.216,3.276914 C85.815,2.555914 59.73,1.049914 56.819,1.248914 C53.907,1.447914 41.618,1.024914 39.426,0.682914 C37.754,0.422914 24.388,-1.860086 13.165,3.700914 C1.942,9.259914 0,16.953914 0,25.070914 C0,31.082914 2.826,34.851914 5.405,43.158914 C7.791,50.843914 10.361,56.514914 11.399,58.620914 C11.75,59.330914 13.981,61.320914 16.117,60.310914 C18.254,59.301914 31.991,43.091914 36.821,39.764914 C41.653,36.439914 51.052,34.267914 51.144,30.244914 C51.235,26.222914 50.557,9.296914 48.469,8.191914 C46.381,7.086914 47.568,4.902914 48.018,4.746914 C49.765,4.140914 53.919,3.617914 53.582,4.081914 Z" id="path6"></path>
        </g>
    </g>
</svg>
