<?xml version="1.0" encoding="UTF-8"?>
<svg width="410px" height="410px" viewBox="0 0 410 410" version="1.1" xmlns="http://www.w3.org/2000/svg" xmlns:xlink="http://www.w3.org/1999/xlink">
    <title>hypoglycemia</title>
    <g id="Page-1" stroke="none" stroke-width="1" fill="none" fill-rule="evenodd">
        <g id="hypoglycemia" fill-rule="nonzero">
            <g id="blood-droplet">
                <path d="M279.82,280.399 C279.82,351.755 217.18,409.6 139.91,409.6 C62.64,409.6 0,351.755 0,280.399 C0,191.338 69.802,173.487 139.91,0 C139.91,0 279.82,209.043 279.82,280.399 Z" id="Path" fill="#C4777A"></path>
                <path d="M139.911,0.001 C126.169,34 112.449,61.96 99.255,85.711 C119.617,123.425 131.789,169.823 131.789,220.204 C131.789,289.762 108.801,351.935 72.669,393.694 C92.628,403.819 115.533,409.6 139.912,409.6 C217.179,409.6 279.819,351.754 279.819,280.398 C279.819,209.042 139.911,0.001 139.911,0.001 Z" id="Path" fill="#A32A2E"></path>
            </g>
            <g id="not-sign" transform="translate(208.891072, 188.890763)">
                <path d="M200.199928,90.1082367 C195.545928,43.1442367 157.558928,5.15923665 110.594928,0.508236651 C47.124928,-5.77776335 -5.77607197,47.1232367 0.507928026,110.592237 C5.15792803,157.559237 43.145928,195.548237 90.112928,200.201237 C153.584928,206.487237 206.489928,153.580237 200.199928,90.1082367 Z" id="Path" fill="#E32315"></path>
                <polygon id="Path" fill="#FFFFFF" points="166.676928 80.0222367 120.686928 80.0222367 80.021928 80.0222367 34.031928 80.0222367 34.031928 120.686237 80.021928 120.686237 120.686928 120.686237 166.676928 120.686237"></polygon>
            </g>
        </g>
    </g>
</svg>