<svg xmlns="http://www.w3.org/2000/svg" viewBox="0 0 71.65 67.37"><defs><style>.cls-1,.cls-2{fill:#df383d;}.cls-2{stroke:#fff;stroke-linecap:round;stroke-miterlimit:10;stroke-width:4px;}</style></defs><title>Asset 69</title><g id="Layer_2" data-name="Layer 2"><g id="Layer_1-2" data-name="Layer 1"><path class="cls-1" d="M68.41,7.79C65.05,2.6,58.5-.76,52.3.15c-7.06,1-11.66,6.11-16.47,10.93C31,6.26,26.41,1.17,19.35.15,13.15-.76,6.6,2.6,3.24,7.79c-4.17,6.44-4.05,15-1.15,22.11C5.87,39.19,14,46.28,20.71,53.41c4.34,4.6,8.84,9.08,13.52,13.34a2.37,2.37,0,0,0,3.2,0C42.11,62.49,46.61,58,51,53.41c6.72-7.13,14.84-14.22,18.62-23.51C72.46,22.79,72.58,14.23,68.41,7.79Z"/><path class="cls-2" d="M8.82,17.38a11.25,11.25,0,0,1,.76-2.31,5.82,5.82,0,0,1,3.15-2.76"/><path class="cls-2" d="M9.16,26.81a19.21,19.21,0,0,1-.76-2.12"/></g></g></svg>