<svg xmlns="http://www.w3.org/2000/svg" viewBox="0 0 81.19 87"><defs><style>.cls-1,.cls-3,.cls-4{fill:#fff;}.cls-1,.cls-4{stroke:#df383d;stroke-miterlimit:10;}.cls-1{stroke-width:4px;}.cls-2{fill:#df383d;}.cls-4{stroke-width:5px;}</style></defs><title>weightBad</title><g id="Layer_2" data-name="Layer 2"><g id="Layer_1-2" data-name="Layer 1"><path class="cls-1" d="M35,75H14.1a7.39,7.39,0,0,1-7.49-6.35L2,27.74A7.27,7.27,0,0,1,9.53,19.9h51A7.27,7.27,0,0,1,68,27.74L63.43,68.65A7.39,7.39,0,0,1,55.94,75Z"/><circle class="cls-2" cx="63.69" cy="69.5" r="17.5"/><rect class="cls-3" x="60.89" y="59.5" width="5.09" height="19.5" rx="2.54" ry="2.54" transform="translate(-5.81 132.69) rotate(-90)"/><rect class="cls-3" x="61.21" y="59.5" width="5.09" height="19.5" rx="2.54" ry="2.54"/><ellipse class="cls-4" cx="35.02" cy="19.9" rx="16.93" ry="17.4"/><path class="cls-2" d="M33.62,11.22,31.68,23c-.38,2.37,1,4.7,3,4.94a3.29,3.29,0,0,0,.45,0c2.22,0,3.79-2.59,3.29-5.14l-2.29-11.7A1.25,1.25,0,0,0,33.62,11.22Z"/><line class="cls-4" x1="34.69" y1="37" x2="34.69" y2="75"/></g></g></svg>