<svg xmlns="http://www.w3.org/2000/svg" viewBox="0 0 97.01 65.37"><defs><style>.cls-1,.cls-2{fill:#fff;stroke:#df383d;stroke-miterlimit:10;stroke-width:4px;}.cls-2{stroke-linecap:round;}.cls-3{fill:#df383d;}</style></defs><title>liverBad</title><g id="Layer_2" data-name="Layer 2"><g id="Layer_1-2" data-name="Layer 1"><path class="cls-1" d="M6.66,61.8a10.93,10.93,0,0,1-2-5.58c-.6-4.3-.14-8.55,0-12.84.16-3.65-1.66-7-2.17-10.56a44.11,44.11,0,0,1-.44-9C2.43,17.92,4.26,11.86,8.8,7.86a16.85,16.85,0,0,1,2-1.53C22.58-1.23,35.05,2.48,47,7.09a10.61,10.61,0,0,1,5.86,4.58c1.92,3.17,2,6.59,2,10.18,0,0,.06,12,.09,18.37,0,2.51-1.73,4-4,4.7-7.29,2.14-14.87,3.69-22,6.17a29.66,29.66,0,0,0-10.48,5.74c-5.38,4.94-6.68,5.93-6.7,5.94a3.74,3.74,0,0,1-4.46-.29A6.68,6.68,0,0,1,6.66,61.8Z"/><path class="cls-2" d="M14.2,21.9a28.21,28.21,0,0,1,2-4.65c1.6-2.78,4.88-5.5,6.7-6.1"/><path class="cls-2" d="M12.81,32.36c-.06-1.11-.06-2.21,0-3.32"/><path class="cls-3" d="M64,8.59a4.71,4.71,0,0,0-2.33,2.28,23.76,23.76,0,0,0-1.76,5.92,50.45,50.45,0,0,0-.74,10.84c.09,6.91.1,10.78.09,12.93a2,2,0,0,0,2.63,2,58.3,58.3,0,0,0,12-5.17c3.73-2.16,6.48-5.38,9.73-8.19A55.24,55.24,0,0,1,90,24.33c1.94-1.25,5.29-2.17,6.6-4.14,1-1.43-.06-2.78-1.2-3.67-6.68-5.16-14.49-6.65-22.65-7.69C70,8.47,66.71,7.4,64,8.59Z"/></g></g></svg>