<svg xmlns="http://www.w3.org/2000/svg" viewBox="0 0 55.58 88.9"><defs><style>.cls-1{fill:#df383d;}.cls-2{fill:#fff;}.cls-3{fill:#edeceb;}.cls-4{fill:#a9262a;}.cls-5{fill:#cac9c7;}.cls-6{fill:none;stroke:#fff;stroke-linecap:round;stroke-miterlimit:10;stroke-width:4px;}</style></defs><title>Asset 71</title><g id="Layer_2" data-name="Layer 2"><g id="Layer_1-2" data-name="Layer 1"><rect class="cls-1" x="25.09" y="59.22" width="6.32" height="26.79"/><rect class="cls-1" x="9.93" y="82.58" width="36.65" height="6.32" rx="1.98" ry="1.98"/><path class="cls-1" d="M27.52,62.55c10.85,0,24.19-5.89,27.53-20.6S45,0,45,0H10.54S-2.8,27.23.54,42s16.68,20.6,27.52,20.6"/><path class="cls-1" d="M27.8,62.54h0Z"/><path class="cls-2" d="M46.87,21.08H8.72a106,106,0,0,1,6-15.78H40.87A107.28,107.28,0,0,1,46.87,21.08Z"/><path class="cls-3" d="M28.06,62.55h0Z"/><path class="cls-3" d="M28.06,62.55h0Z"/><path class="cls-4" d="M27.63,56.43h0Z"/><path class="cls-5" d="M27.52,62.55h0Z"/><path class="cls-1" d="M28.06,62.55h0Z"/><path class="cls-6" d="M12.31,27.49s-2.75,7.33-1.83,11.92"/><line class="cls-6" x1="12.08" y1="45.92" x2="13.45" y2="48.47"/></g></g></svg>
