<svg xmlns="http://www.w3.org/2000/svg" viewBox="0 0 81.19 87"><defs><style>.cls-1,.cls-3,.cls-4{fill:#fff;}.cls-1,.cls-4{stroke:#26a677;stroke-miterlimit:10;}.cls-1{stroke-width:4px;}.cls-2{fill:#26a677;}.cls-4{stroke-width:5px;}</style></defs><title>weightGood</title><g id="Layer_2" data-name="Layer 2"><g id="Layer_1-2" data-name="Layer 1"><path class="cls-1" d="M46.17,75H67.09a7.39,7.39,0,0,0,7.49-6.35l4.57-40.91a7.28,7.28,0,0,0-7.49-7.84h-51a7.27,7.27,0,0,0-7.49,7.84l4.57,40.91A7.38,7.38,0,0,0,25.25,75Z"/><circle class="cls-2" cx="17.5" cy="69.5" r="17.5"/><rect class="cls-3" x="15.21" y="59.5" width="5.09" height="19.5" rx="2.54" ry="2.54" transform="translate(-51.5 87) rotate(-90)"/><ellipse class="cls-4" cx="46.17" cy="19.9" rx="16.93" ry="17.4"/><path class="cls-2" d="M47.57,11.22,49.5,23c.39,2.37-.94,4.7-3,4.94a3.4,3.4,0,0,1-.45,0c-2.22,0-3.8-2.59-3.3-5.14l2.3-11.7A1.25,1.25,0,0,1,47.57,11.22Z"/><line class="cls-4" x1="46.5" y1="37" x2="46.5" y2="75"/></g></g></svg>
