<svg xmlns="http://www.w3.org/2000/svg" viewBox="0 0 91.19 76.16"><defs><style>.cls-1{fill:#fff;}.cls-2{fill:#df383d;}.cls-3{fill:none;stroke:#fff;stroke-linecap:round;stroke-miterlimit:10;stroke-width:4px;}</style></defs><title>kidneyBad</title><g id="Layer_2" data-name="Layer 2"><g id="Layer_1-2" data-name="Layer 1"><path class="cls-1" d="M35.61,73.93V37.18c0-3.82-6.19-4.9-7.23-5l-11.22-1,6.21-12.71L27,20.19A2,2,0,0,0,26.6,18c.45.41,3.52,2.52,4.53,3.22l.9.62c2,1.42,4.13,2.89,6.59,4.51A14.16,14.16,0,0,1,43,30.75a12.43,12.43,0,0,1,1.75,6.43V73.93Z"/><path class="cls-2" d="M25.17,19.33c-.08.15,5.2,3.73,5.7,4.09C33.05,25,35.28,26.49,37.52,28a12.16,12.16,0,0,1,3.8,3.82,10.39,10.39,0,0,1,1.46,5.39V71.93H37.61V37.18c0-5.83-8.43-7-9.14-7.06h0l-8.22-.7,4.93-10.1m2.73-2.9a4,4,0,0,1,.85,4.68l-7-3.79c-.07.12-.07.12-5.07,10.35l-2.56,5.24,5.82.5,8.21.71h.11c1.64.24,5.39,1.29,5.39,3V75.93H46.78V37.18a14.47,14.47,0,0,0-2-7.47,16.09,16.09,0,0,0-5-5.08c-2.45-1.61-4.58-3.07-6.52-4.46l-.91-.63c-.95-.66-3.85-2.66-4.39-3.11Z"/><path class="cls-2" d="M34.74,14.51c1.75-2.87,1.07-6.62-.72-9.34-5.14-7.86-16.19-5.56-22.67-1C5.77,8.08,2.1,14.67.65,21.27A26.72,26.72,0,0,0,.1,29.44,24,24,0,0,0,7.91,45c5,4.4,12.79,6.61,18.18,1.6a10.37,10.37,0,0,0,3.23-7c.15-3.18-1.79-5.83-2.28-8.87a13.28,13.28,0,0,1,2.71-10.42C31.29,18.44,33.42,16.68,34.74,14.51Z"/><path class="cls-1" d="M46.41,74.16V37.41A12.43,12.43,0,0,1,48.16,31a14.26,14.26,0,0,1,4.41-4.45c2.47-1.62,4.63-3.1,6.59-4.5l.87-.6c1-.7,4.1-2.83,4.57-3.25a2,2,0,0,0-.38,2.25l3.6-1.74c.07.13,6.21,12.72,6.21,12.72l-11.25,1c-1.11.17-7.2,1.26-7.2,5V74.16Z"/><path class="cls-2" d="M66,19.57,71,29.66l-8.21.71h0c-.71.08-9.14,1.22-9.14,7V72.16H48.41V37.41A10.44,10.44,0,0,1,49.87,32a12.23,12.23,0,0,1,3.8-3.81c2.25-1.48,4.47-3,6.66-4.56.49-.35,5.77-3.94,5.69-4.08m-2.72-2.9c-.54.45-3.45,2.45-4.4,3.11l-.9.62c-2,1.39-4.08,2.85-6.53,4.46a16.12,16.12,0,0,0-5,5.09,14.41,14.41,0,0,0-2,7.46V76.16H57.58V37.41c0-1.76,3.77-2.81,5.41-3h.09l8.22-.7,5.81-.5-2.56-5.24c-5-10.23-5-10.23-5.07-10.36l-7,3.8a4,4,0,0,1,.86-4.68Z"/><path class="cls-2" d="M56.45,14.74c-1.74-2.87-1.06-6.61.72-9.34,5.14-7.85,16.19-5.55,22.67-1,5.58,3.91,9.25,10.51,10.7,17.1a26.78,26.78,0,0,1,.55,8.18,24,24,0,0,1-7.81,15.56c-5,4.41-12.78,6.62-18.18,1.61a10.36,10.36,0,0,1-3.22-7C61.73,36.66,63.66,34,64.15,31a13.27,13.27,0,0,0-2.71-10.43C59.9,18.67,57.78,16.92,56.45,14.74Z"/><path class="cls-3" d="M11.9,14.85a16.63,16.63,0,0,1,1.46-2.67A9.18,9.18,0,0,1,17.75,9"/><path class="cls-3" d="M8.09,25.12a32.8,32.8,0,0,1,.78-3.22"/><path class="cls-3" d="M78.93,14.85a16.63,16.63,0,0,0-1.46-2.67A9.2,9.2,0,0,0,73.09,9"/><path class="cls-3" d="M82.75,25.12C82.54,24,82.27,23,82,21.9"/></g></g></svg>