<svg xmlns="http://www.w3.org/2000/svg" viewBox="0 0 91.19 76.4"><defs><style>.cls-1{fill:#fff;}.cls-2,.cls-3{fill:#26a677;}.cls-3{stroke:#fff;stroke-linecap:round;stroke-miterlimit:10;stroke-width:4px;}</style></defs><title>kidneyGood</title><g id="Layer_2" data-name="Layer 2"><g id="Layer_1-2" data-name="Layer 1"><path class="cls-1" d="M35.27,74l.27-36.75c0-3.8-6.13-4.93-7.19-5.1l-11.22-1,1.3-2.61c5.3-10.65,5.3-10.65,5.89-11l5.45-2.76-2,4c1.12.82,2.76,2,3.44,2.44l.88.62c1.94,1.41,4.08,2.9,6.56,4.56A14,14,0,0,1,43,30.89a12.46,12.46,0,0,1,1.71,6.44l-.27,36.75Z"/><path class="cls-2" d="M25.23,19.34h0m0,0c-.08.15,5.17,3.77,5.66,4.13q3.27,2.37,6.63,4.6a12.09,12.09,0,0,1,3.76,3.84,10.35,10.35,0,0,1,1.43,5.4l-.26,34.75-5.16,0,.25-34.75c0-5.82-8.38-7-9.09-7.11h0l-8.21-.76s5-10,5-10.06M28,16.46a4,4,0,0,1,.81,4.69l-3.56-1.81-3.58-1.79s-5,10.07-5,10.07L14,32.84l5.81.54,8.21.77h.11c1.64.26,5.38,1.33,5.37,3.09L33.29,72l0,4,4,0,5.17,0,4,0,0-4,.26-34.75a14.39,14.39,0,0,0-2-7.48,16.16,16.16,0,0,0-5-5.12c-2.44-1.62-4.56-3.1-6.49-4.51l-.9-.63c-1-.66-3.84-2.68-4.37-3.14Z"/><path class="cls-2" d="M34.83,14.59C36.6,11.73,36,8,34.18,5.24,29.1-2.65,18-.43,11.52,4.07,5.91,8,2.19,14.51.69,21.1a26.72,26.72,0,0,0-.6,8.17A23.94,23.94,0,0,0,7.78,44.89C12.71,49.33,20.52,51.6,26,46.63a10.35,10.35,0,0,0,3.27-7c.18-3.18-1.73-5.85-2.21-8.89a13.3,13.3,0,0,1,2.79-10.4C31.36,18.49,33.49,16.75,34.83,14.59Z"/><path class="cls-1" d="M46.07,74.32l.27-36.75a12.49,12.49,0,0,1,1.79-6.41,14.22,14.22,0,0,1,4.45-4.42c2.48-1.61,4.65-3.07,6.62-4.46l.87-.59c.69-.47,2.36-1.6,3.49-2.4l-.69-1.42h3.21c1.26,0,1.26,0,4.23,6.2L74,31.77l-11.26.88c-1.13.16-7.21,1.21-7.24,5l-.26,36.75Z"/><path class="cls-2" d="M66.08,19.87h0m0,0L70.94,30l-8.23.65h0c-.71.08-9.14,1.16-9.19,7l-.25,34.74-5.16,0,.25-34.75a10.3,10.3,0,0,1,1.5-5.38,12.13,12.13,0,0,1,3.82-3.79c2.26-1.46,4.5-3,6.69-4.5.49-.35,5.8-3.9,5.73-4.05M63.37,17c-.54.45-3.46,2.43-4.42,3.08l-.91.62C56.09,22,54,23.47,51.49,25.06a16.15,16.15,0,0,0-5.06,5.05,14.39,14.39,0,0,0-2.09,7.45l-.25,34.75,0,4,4,0,5.16,0,4,0,0-4,.25-34.75c0-1.76,3.8-2.78,5.43-3H63L71.25,34l5.81-.46-2.52-5.26L69.68,18.14l-7.28,3.3a4,4,0,0,1,1-4.49Z"/><path class="cls-2" d="M56.54,15c-1.72-2.88-1-6.63.79-9.34C62.52-2.17,73.55.2,80,4.8c5.55,4,9.17,10.58,10.57,17.19a26.69,26.69,0,0,1,.49,8.17,24,24,0,0,1-7.92,15.51C78.16,50,70.32,52.2,65,47.15a10.38,10.38,0,0,1-3.18-7c-.12-3.18,1.83-5.82,2.35-8.85a13.3,13.3,0,0,0-2.64-10.44C60,18.93,57.85,17.16,56.54,15Z"/><path class="cls-3" d="M12,14.76a16.86,16.86,0,0,1,1.48-2.66,9.32,9.32,0,0,1,4.41-3.2"/><path class="cls-3" d="M8,25.28a32.85,32.85,0,0,1,.79-3.22"/><path class="cls-3" d="M79,15.25a16.78,16.78,0,0,0-1.44-2.68A9.3,9.3,0,0,0,73.22,9.3"/><path class="cls-3" d="M82.76,25.55A32.94,32.94,0,0,0,82,22.32"/></g></g></svg>
