<svg xmlns="http://www.w3.org/2000/svg" viewBox="0 0 76.9 105"><defs><style>.cls-1,.cls-3,.cls-4{fill:#fff;}.cls-1,.cls-3{stroke:#df383d;stroke-miterlimit:10;stroke-width:4px;}.cls-2{fill:#df383d;}.cls-3{stroke-linecap:round;}</style></defs><title>hypoGly</title><g id="Layer_2" data-name="Layer 2"><g id="Layer_1-2" data-name="Layer 1"><path class="cls-1" d="M74.9,22.7V62.22a28.68,28.68,0,0,1-15.54,25.5,28.64,28.64,0,0,1-26.31,0q-1-.52-1.95-1.11A29.19,29.19,0,0,1,24.49,81a28.62,28.62,0,0,1-7-18.77V22.7A10.71,10.71,0,0,1,28.21,12h36a10.36,10.36,0,0,1,2.23.24c.12,0,.23,0,.35.07A10.71,10.71,0,0,1,74.9,22.7Z"/><rect class="cls-1" x="26.12" y="21.87" width="40.03" height="29.13"/><path class="cls-1" d="M59.36,78.06v9.66a28.64,28.64,0,0,1-26.31,0V78.06A5.07,5.07,0,0,1,38.12,73H54.29A5.07,5.07,0,0,1,59.36,78.06Z"/><rect class="cls-2" x="40.23" y="73.42" width="11.96" height="31.58"/><line class="cls-3" x1="27.86" y1="62.33" x2="40.99" y2="62.33"/><line class="cls-3" x1="51.93" y1="62.33" x2="65.06" y2="62.33"/><circle class="cls-2" cx="18.5" cy="18.5" r="18.5"/><rect class="cls-4" x="16.08" y="7.93" width="5.38" height="20.61" rx="2.69" ry="2.69" transform="translate(0.53 37) rotate(-90)"/></g></g></svg>